<svg width="15" height="7" viewBox="0 0 15 7" fill="none" xmlns="http://www.w3.org/2000/svg">
<path d="M0.599248 0.993352C0.598795 0.761661 0.679487 0.537125 0.827317 0.358723C0.910562 0.258314 1.0128 0.175315 1.12817 0.114478C1.24354 0.053641 1.36978 0.0161619 1.49965 0.00418741C1.62953 -0.0077871 1.7605 0.00597842 1.88505 0.0446952C2.00959 0.083412 2.12528 0.146319 2.22548 0.229814L7.5405 4.67222L12.8654 0.388472C12.9669 0.306104 13.0836 0.244592 13.2088 0.207475C13.3341 0.170357 13.4655 0.158365 13.5954 0.172187C13.7254 0.186009 13.8513 0.225373 13.9659 0.288017C14.0806 0.35066 14.1818 0.435349 14.2636 0.537213C14.3539 0.639811 14.422 0.75996 14.4636 0.89012C14.5052 1.02028 14.5195 1.15764 14.5055 1.29359C14.4916 1.42953 14.4497 1.56112 14.3824 1.68009C14.3152 1.79907 14.2241 1.90286 14.1149 1.98496L8.16521 6.77442C7.98778 6.92027 7.76522 7 7.53554 7C7.30586 7 7.0833 6.92027 6.90587 6.77442L0.956227 1.81639C0.836225 1.71691 0.741364 1.59055 0.67934 1.44755C0.617317 1.30455 0.589877 1.14894 0.599248 0.993352Z" fill="white"/>
</svg>
