<svg width="16" height="17" viewBox="0 0 16 17" fill="none" xmlns="http://www.w3.org/2000/svg">
<path fill-rule="evenodd" clip-rule="evenodd" d="M7 14.0099C10.866 14.0099 14 10.8759 14 7.00994C14 3.14395 10.866 0.00994492 7 0.00994492C3.13401 0.00994492 0 3.14395 0 7.00994C0 10.8759 3.13401 14.0099 7 14.0099ZM7 12.0099C9.76142 12.0099 12 9.77137 12 7.00994C12 4.24852 9.76142 2.00994 7 2.00994C4.23858 2.00994 2 4.24852 2 7.00994C2 9.77137 4.23858 12.0099 7 12.0099Z" fill="white"/>
<path d="M10.8275 12.2517L12.2417 10.8375L16 14.5957L14.5858 16.0099L10.8275 12.2517Z" fill="white"/>
</svg>
